<svg width="129" height="128" viewBox="0 0 129 128" fill="none" xmlns="http://www.w3.org/2000/svg">
<path fill-rule="evenodd" clip-rule="evenodd" d="M64.5391 20C40.2385 20 20.5391 39.6995 20.5391 64C20.5391 88.3005 40.2385 108 64.5391 108C88.8396 108 108.539 88.3005 108.539 64C108.539 39.6995 88.8396 20 64.5391 20ZM12.5391 64C12.5391 35.2812 35.8203 12 64.5391 12C93.2579 12 116.539 35.2812 116.539 64C116.539 92.7188 93.2579 116 64.5391 116C35.8203 116 12.5391 92.7188 12.5391 64ZM64.5391 32C66.7482 32 68.5391 33.7909 68.5391 36V60H92.5391C94.7482 60 96.5391 61.7909 96.5391 64C96.5391 66.2091 94.7482 68 92.5391 68H64.5391C62.3299 68 60.5391 66.2091 60.5391 64V36C60.5391 33.7909 62.3299 32 64.5391 32Z" fill="#C4C4CC"/>
</svg>
