<svg width="25" height="19" viewBox="0 0 25 19" fill="none" xmlns="http://www.w3.org/2000/svg">
<path fill-rule="evenodd" clip-rule="evenodd" d="M0.5 2.3C0.5 1.30589 1.26751 0.5 2.21429 0.5H22.7857C23.7325 0.5 24.5 1.30589 24.5 2.3V16.7C24.5 17.6941 23.7325 18.5 22.7857 18.5H2.21429C1.26751 18.5 0.5 17.6941 0.5 16.7V2.3ZM22.7857 2.3H2.21429V16.7H22.7857V2.3Z" fill="white"/>
<path fill-rule="evenodd" clip-rule="evenodd" d="M15.9286 14C15.9286 13.5029 16.3123 13.1 16.7857 13.1H20.2143C20.6877 13.1 21.0714 13.5029 21.0714 14C21.0714 14.4971 20.6877 14.9 20.2143 14.9H16.7857C16.3123 14.9 15.9286 14.4971 15.9286 14Z" fill="white"/>
<path fill-rule="evenodd" clip-rule="evenodd" d="M10.7857 14C10.7857 13.5029 11.1695 13.1 11.6429 13.1H13.3571C13.8305 13.1 14.2143 13.5029 14.2143 14C14.2143 14.4971 13.8305 14.9 13.3571 14.9H11.6429C11.1695 14.9 10.7857 14.4971 10.7857 14Z" fill="white"/>
<path fill-rule="evenodd" clip-rule="evenodd" d="M0.5 6.00195C0.5 5.5049 0.883756 5.10195 1.35714 5.10195H23.6429C24.1162 5.10195 24.5 5.5049 24.5 6.00195C24.5 6.49901 24.1162 6.90195 23.6429 6.90195H1.35714C0.883756 6.90195 0.5 6.49901 0.5 6.00195Z" fill="white"/>
</svg>
