<svg version="1.1" id="Layer_1" xmlns="http://www.w3.org/2000/svg" xmlns:xlink="http://www.w3.org/1999/xlink" x="0px" y="0px"
	 width="100%" viewBox="0 0 500 500" enable-background="new 0 0 500 500" xml:space="preserve">
<path fill="#000000" opacity="1.000000" stroke="none" 
	d="
M295.000000,501.000000 
	C196.666687,501.000000 98.833382,501.000000 1.000052,501.000000 
	C1.000035,334.333405 1.000035,167.666794 1.000018,1.000142 
	C167.666565,1.000095 334.333130,1.000095 500.999756,1.000047 
	C500.999847,167.666519 500.999847,334.333038 500.999939,500.999786 
	C432.500000,501.000000 364.000000,501.000000 295.000000,501.000000 
M341.639435,479.162445 
	C466.512299,429.647369 532.574524,286.298004 476.663452,154.902954 
	C424.804413,33.030556 285.680664,-29.485468 156.151443,24.754669 
	C31.577282,76.919876 -29.622765,217.081299 25.391430,347.954742 
	C76.290680,469.039154 214.632828,528.182068 341.639435,479.162445 
z"/>
<path fill="#131115" opacity="1.000000" stroke="none" 
	d="
M341.285736,479.315125 
	C214.632828,528.182068 76.290680,469.039154 25.391430,347.954742 
	C-29.622765,217.081299 31.577282,76.919876 156.151443,24.754669 
	C285.680664,-29.485468 424.804413,33.030556 476.663452,154.902954 
	C532.574524,286.298004 466.512299,429.647369 341.285736,479.315125 
M124.468979,182.502136 
	C124.469635,231.326706 124.429115,280.151367 124.543068,328.975647 
	C124.553009,333.236084 124.717247,337.847504 126.292648,341.687531 
	C131.164780,353.563416 139.994949,359.871735 153.360718,359.841675 
	C215.182388,359.702728 277.004669,359.838867 338.826385,359.713654 
	C344.219635,359.702728 348.490875,360.959503 352.036621,365.161896 
	C354.712494,368.333313 357.798096,371.186432 360.905212,373.952148 
	C362.026642,374.950378 364.527740,376.215454 365.059814,375.767609 
	C368.831787,372.592468 372.745453,369.334381 375.453888,365.320068 
	C376.149353,364.289246 373.128693,360.025299 371.083954,357.976501 
	C295.866486,282.608032 220.563293,207.325134 145.269836,132.032516 
	C138.001694,124.764450 137.995712,124.770424 130.681732,132.139084 
	C125.083054,137.779602 124.966522,137.891403 130.355453,143.509094 
	C133.470261,146.756149 133.884796,149.578278 130.719467,153.001297 
	C129.284698,154.552887 128.379776,156.611176 127.315315,158.485489 
	C123.184898,165.758331 124.814812,173.755188 124.468979,182.502136 
M359.342560,237.492310 
	C359.342560,242.348770 359.342560,247.205215 359.342560,252.061676 
	C358.721710,252.221039 358.100891,252.380402 357.480042,252.539764 
	C355.983429,251.394257 354.367004,250.374084 353.012573,249.079773 
	C348.917908,245.166748 345.068329,240.987686 340.858429,237.207184 
	C334.681641,231.660461 330.273254,231.622513 324.185089,237.205521 
	C318.786194,242.156464 313.716919,247.467697 308.519745,252.637604 
	C298.946411,262.160797 299.019257,262.135376 308.995636,271.013336 
	C312.037598,273.720367 314.531738,273.488495 317.214661,270.811279 
	C320.281036,267.751373 323.348114,264.691956 326.437439,261.655273 
	C331.720673,256.462067 333.265289,256.413635 338.380341,261.461182 
	C344.072906,267.078613 349.998962,272.503265 355.218262,278.535431 
	C357.392944,281.048798 358.929260,284.854889 359.145142,288.177795 
	C359.694885,296.640015 359.325867,305.161255 359.345459,313.658813 
	C359.363983,321.702545 368.323639,333.758118 376.936798,336.696960 
	C377.241699,334.528503 377.778778,332.484009 377.780182,330.439117 
	C377.817291,276.787628 377.592224,223.134811 377.933899,169.485519 
	C378.020416,155.899307 364.699158,142.465775 351.175201,142.497009 
	C297.024200,142.622101 242.872696,142.522385 188.721405,142.563293 
	C186.897446,142.564667 185.073959,143.181610 181.906113,143.754852 
	C190.944153,152.404083 196.469589,161.962982 210.652817,161.688782 
	C255.789871,160.816208 300.954559,161.351364 346.108521,161.391052 
	C356.217529,161.399948 359.292480,164.477524 359.317627,174.512985 
	C359.369324,195.173737 359.340057,215.834686 359.342560,237.492310 
M295.739349,213.281387 
	C304.710693,207.411987 308.032440,199.116348 304.745728,190.789001 
	C300.995300,181.286591 289.975494,176.142960 281.060394,179.733521 
	C271.306793,183.661774 266.348175,194.760361 270.260681,203.905960 
	C274.502869,213.822205 285.013000,217.950729 295.739349,213.281387 
z"/>
<path fill="#700410" opacity="1.000000" stroke="none" 
	d="
M124.469986,182.002838 
	C124.814812,173.755188 123.184898,165.758331 127.315315,158.485489 
	C128.379776,156.611176 129.284698,154.552887 130.719467,153.001297 
	C133.884796,149.578278 133.470261,146.756149 130.355453,143.509094 
	C124.966522,137.891403 125.083054,137.779602 130.681732,132.139084 
	C137.995712,124.770424 138.001694,124.764450 145.269836,132.032516 
	C220.563293,207.325134 295.866486,282.608032 371.083954,357.976501 
	C373.128693,360.025299 376.149353,364.289246 375.453888,365.320068 
	C372.745453,369.334381 368.831787,372.592468 365.059814,375.767609 
	C364.527740,376.215454 362.026642,374.950378 360.905212,373.952148 
	C357.798096,371.186432 354.712494,368.333313 352.036621,365.161896 
	C348.490875,360.959503 344.219635,359.702728 338.826385,359.713654 
	C277.004669,359.838867 215.182388,359.702728 153.360718,359.841675 
	C139.994949,359.871735 131.164780,353.563416 126.292648,341.687531 
	C124.717247,337.847504 124.553009,333.236084 124.543068,328.975647 
	C124.429115,280.151367 124.469635,231.326706 124.469986,182.002838 
M283.499969,341.317780 
	C297.309174,341.239868 311.130280,341.472931 325.110718,340.375427 
	C324.242584,338.004242 323.271362,336.513306 322.041016,335.281006 
	C291.215454,304.405334 260.371857,273.547638 229.504578,242.713638 
	C224.809250,238.023361 223.418396,238.004852 218.827805,242.633011 
	C194.789444,266.868103 170.782013,291.133881 146.784775,315.409698 
	C142.941269,319.297821 141.391785,330.201721 143.896408,335.562775 
	C146.589355,341.326935 151.788254,341.340607 157.106979,341.335358 
	C198.904602,341.294159 240.702271,341.316498 283.499969,341.317780 
M188.159714,201.340714 
	C176.383682,189.574692 164.670441,177.744202 152.749146,166.127243 
	C151.318985,164.733597 148.362885,163.439743 146.830276,164.013336 
	C145.165833,164.636246 144.177414,167.418396 143.215546,169.413895 
	C142.748230,170.383408 142.956039,171.706070 142.955627,172.868881 
	C142.942322,209.824814 142.927414,246.780746 142.977768,283.736603 
	C142.980301,285.596771 143.563110,287.456116 144.028275,290.223297 
	C146.027328,288.910919 147.384140,288.313599 148.360107,287.336090 
	C168.001831,267.662811 187.589355,247.935394 207.218094,228.249100 
	C210.038559,225.420380 209.941772,222.947174 207.065094,220.160110 
	C200.848755,214.137436 194.783905,207.958405 188.159714,201.340714 
z"/>
<path fill="#700410" opacity="1.000000" stroke="none" 
	d="
M359.343323,236.993927 
	C359.340057,215.834686 359.369324,195.173737 359.317627,174.512985 
	C359.292480,164.477524 356.217529,161.399948 346.108521,161.391052 
	C300.954559,161.351364 255.789871,160.816208 210.652817,161.688782 
	C196.469589,161.962982 190.944153,152.404083 181.906113,143.754852 
	C185.073959,143.181610 186.897446,142.564667 188.721405,142.563293 
	C242.872696,142.522385 297.024200,142.622101 351.175201,142.497009 
	C364.699158,142.465775 378.020416,155.899307 377.933899,169.485519 
	C377.592224,223.134811 377.817291,276.787628 377.780182,330.439117 
	C377.778778,332.484009 377.241699,334.528503 376.936798,336.696960 
	C368.323639,333.758118 359.363983,321.702545 359.345459,313.658813 
	C359.325867,305.161255 359.694885,296.640015 359.145142,288.177795 
	C358.929260,284.854889 357.392944,281.048798 355.218262,278.535431 
	C349.998962,272.503265 344.072906,267.078613 338.380341,261.461182 
	C333.265289,256.413635 331.720673,256.462067 326.437439,261.655273 
	C323.348114,264.691956 320.281036,267.751373 317.214661,270.811279 
	C314.531738,273.488495 312.037598,273.720367 308.995636,271.013336 
	C299.019257,262.135376 298.946411,262.160797 308.519745,252.637604 
	C313.716919,247.467697 318.786194,242.156464 324.185089,237.205521 
	C330.273254,231.622513 334.681641,231.660461 340.858429,237.207184 
	C345.068329,240.987686 348.917908,245.166748 353.012573,249.079773 
	C354.367004,250.374084 355.983429,251.394257 357.480042,252.539764 
	C358.100891,252.380402 358.721710,252.221039 359.342560,252.061676 
	C359.342560,247.205215 359.342560,242.348770 359.343323,236.993927 
z"/>
<path fill="#6F0410" opacity="1.000000" stroke="none" 
	d="
M295.417786,213.471558 
	C285.013000,217.950729 274.502869,213.822205 270.260681,203.905960 
	C266.348175,194.760361 271.306793,183.661774 281.060394,179.733521 
	C289.975494,176.142960 300.995300,181.286591 304.745728,190.789001 
	C308.032440,199.116348 304.710693,207.411987 295.417786,213.471558 
z"/>
<path fill="#151115" opacity="1.000000" stroke="none" 
	d="
M282.999939,341.318542 
	C240.702271,341.316498 198.904602,341.294159 157.106979,341.335358 
	C151.788254,341.340607 146.589355,341.326935 143.896408,335.562775 
	C141.391785,330.201721 142.941269,319.297821 146.784775,315.409698 
	C170.782013,291.133881 194.789444,266.868103 218.827805,242.633011 
	C223.418396,238.004852 224.809250,238.023361 229.504578,242.713638 
	C260.371857,273.547638 291.215454,304.405334 322.041016,335.281006 
	C323.271362,336.513306 324.242584,338.004242 325.110718,340.375427 
	C311.130280,341.472931 297.309174,341.239868 282.999939,341.318542 
z"/>
<path fill="#151115" opacity="1.000000" stroke="none" 
	d="
M188.408386,201.592026 
	C194.783905,207.958405 200.848755,214.137436 207.065094,220.160110 
	C209.941772,222.947174 210.038559,225.420380 207.218094,228.249100 
	C187.589355,247.935394 168.001831,267.662811 148.360107,287.336090 
	C147.384140,288.313599 146.027328,288.910919 144.028275,290.223297 
	C143.563110,287.456116 142.980301,285.596771 142.977768,283.736603 
	C142.927414,246.780746 142.942322,209.824814 142.955627,172.868881 
	C142.956039,171.706070 142.748230,170.383408 143.215546,169.413895 
	C144.177414,167.418396 145.165833,164.636246 146.830276,164.013336 
	C148.362885,163.439743 151.318985,164.733597 152.749146,166.127243 
	C164.670441,177.744202 176.383682,189.574692 188.408386,201.592026 
z"/>
</svg>