<svg width="25" height="25" viewBox="0 0 25 25" fill="none" xmlns="http://www.w3.org/2000/svg">
<path d="M14.934 18.9055L14.9342 18.9057C15.3552 19.3162 15.8456 19.6339 16.3784 19.849L13.3216 22.8308C13.3216 22.8308 13.3216 22.8308 13.3216 22.8309C12.3148 23.8129 10.6724 23.8129 9.6657 22.8308L9.66569 22.8308L6.69699 19.935C7.30508 19.7219 7.8642 19.3784 8.3361 18.9183L8.33629 18.9181L11.6416 15.6937L14.934 18.9055Z" stroke="white" stroke-width="2"/>
<path d="M13.3219 2.16886L16.3776 5.14792C15.8453 5.36282 15.3552 5.68021 14.9343 6.09026L14.9341 6.09046L11.6413 9.30085L8.33597 6.0779L8.33573 6.07767C7.86407 5.61808 7.30534 5.2749 6.6977 5.06195L9.66535 2.16883L9.66538 2.1688C10.6721 1.18726 12.3148 1.18718 13.3219 2.16882C13.3219 2.16883 13.3219 2.16885 13.3219 2.16886Z" stroke="white" stroke-width="2"/>
<mask id="path-3-inside-1_96_8300" fill="white">
<path d="M23.4321 10.5915L20.6692 8.01028C20.6084 8.03304 20.5425 8.04725 20.4729 8.04725H19.2167C18.5672 8.04725 17.9315 8.29335 17.4725 8.7224L13.8729 12.0853C13.5361 12.4001 13.0934 12.5575 12.6512 12.5575C12.2086 12.5575 11.7663 12.4001 11.4295 12.0856L7.81628 8.7101C7.35736 8.28096 6.72159 8.03496 6.07212 8.03496H4.52745C4.46156 8.03496 4.4 8.02045 4.34187 8L1.56793 10.5915C0.144023 11.9217 0.144023 14.0784 1.56793 15.4086L4.34176 18C4.39999 17.9796 4.46156 17.965 4.52745 17.965H6.07212C6.72159 17.965 7.35736 17.719 7.81628 17.29L11.4292 13.9148C12.0822 13.3052 13.2206 13.305 13.8729 13.915L17.4725 17.2777C17.9315 17.7067 18.5672 17.9528 19.2167 17.9528H20.4729C20.5425 17.9528 20.6084 17.967 20.6692 17.9898L23.4321 15.4086C24.8559 14.0783 24.8559 11.9217 23.4321 10.5915"/>
</mask>
<path d="M20.6692 8.01028L22.0345 6.54882L21.1289 5.70279L19.9682 6.13714L20.6692 8.01028ZM17.4725 8.7224L18.8379 10.1838L18.8384 10.1834L17.4725 8.7224ZM13.8729 12.0853L15.2383 13.5468L15.2383 13.5468L13.8729 12.0853ZM11.4295 12.0856L10.0642 13.5471L10.0646 13.5475L11.4295 12.0856ZM7.81628 8.7101L6.45027 10.1709L6.45095 10.1716L7.81628 8.7101ZM4.34187 8L5.00573 6.11339L3.8623 5.71104L2.97654 6.53854L4.34187 8ZM1.56793 10.5915L2.93326 12.053L2.93326 12.053L1.56793 10.5915ZM1.56793 15.4086L2.93326 13.9472L2.93326 13.9471L1.56793 15.4086ZM4.34176 18L2.97643 19.4615L3.86152 20.2883L5.00437 19.8871L4.34176 18ZM7.81628 17.29L6.45095 15.8285L6.45044 15.829L7.81628 17.29ZM11.4292 13.9148L10.0644 12.4527L10.0638 12.4533L11.4292 13.9148ZM13.8729 13.915L12.5069 15.3758L12.5076 15.3765L13.8729 13.915ZM17.4725 17.2777L18.8384 15.8167L18.8378 15.8162L17.4725 17.2777ZM20.6692 17.9898L19.9677 19.8628L21.1286 20.2976L22.0345 19.4513L20.6692 17.9898ZM23.4321 15.4086L24.7975 16.8701L24.7975 16.87L23.4321 15.4086ZM24.7975 9.13004L22.0345 6.54882L19.3039 9.47174L22.0668 12.053L24.7975 9.13004ZM19.9682 6.13714C20.0954 6.08956 20.2673 6.04725 20.4729 6.04725V10.0472C20.8177 10.0472 21.1214 9.97651 21.3702 9.88342L19.9682 6.13714ZM20.4729 6.04725H19.2167V10.0472H20.4729V6.04725ZM19.2167 6.04725C18.079 6.04725 16.9497 6.47331 16.1067 7.26142L18.8384 10.1834C18.9132 10.1134 19.0555 10.0472 19.2167 10.0472V6.04725ZM16.1072 7.26096L12.5076 10.6239L15.2383 13.5468L18.8379 10.1838L16.1072 7.26096ZM12.5076 10.6239C12.57 10.5655 12.6275 10.5575 12.6512 10.5575V14.5575C13.5594 14.5575 14.5021 14.2346 15.2383 13.5468L12.5076 10.6239ZM12.6512 10.5575C12.6745 10.5575 12.732 10.5655 12.7944 10.6238L10.0646 13.5475C10.8005 14.2346 11.7427 14.5575 12.6512 14.5575V10.5575ZM12.7948 10.6242L9.18161 7.24864L6.45095 10.1716L10.0642 13.5471L12.7948 10.6242ZM9.1823 7.24928C8.33908 6.46079 7.20961 6.03496 6.07212 6.03496V10.035C6.23356 10.035 6.37563 10.1011 6.45027 10.1709L9.1823 7.24928ZM6.07212 6.03496H4.52745V10.035H6.07212V6.03496ZM4.52745 6.03496C4.75803 6.03496 4.92896 6.08638 5.00573 6.11339L3.67802 9.88661C3.87103 9.95453 4.1651 10.035 4.52745 10.035V6.03496ZM2.97654 6.53854L0.202595 9.13004L2.93326 12.053L5.70721 9.46146L2.97654 6.53854ZM0.202596 9.13004C-2.06753 11.2509 -2.06753 14.7493 0.202596 16.8701L2.93326 13.9471C2.35558 13.4075 2.35558 12.5926 2.93326 12.053L0.202596 9.13004ZM0.202595 16.8701L2.97643 19.4615L5.7071 16.5385L2.93326 13.9472L0.202595 16.8701ZM5.00437 19.8871C4.92878 19.9136 4.75808 19.965 4.52745 19.965V15.965C4.16504 15.965 3.8712 16.0455 3.67916 16.113L5.00437 19.8871ZM4.52745 19.965H6.07212V15.965H4.52745V19.965ZM6.07212 19.965C7.20959 19.965 8.33898 19.5392 9.18213 18.751L6.45044 15.829C6.37574 15.8989 6.23358 15.965 6.07212 15.965V19.965ZM9.18162 18.7515L12.7945 15.3762L10.0638 12.4533L6.45095 15.8285L9.18162 18.7515ZM12.7939 15.3768C12.7446 15.4228 12.7018 15.4428 12.6806 15.4506C12.6605 15.4579 12.6515 15.4575 12.6512 15.4575C12.651 15.4575 12.6417 15.4579 12.6213 15.4504C12.5998 15.4426 12.5565 15.4222 12.5069 15.3758L15.239 12.4542C13.8172 11.1247 11.4853 11.1265 10.0644 12.4527L12.7939 15.3768ZM12.5076 15.3765L16.1072 18.7392L18.8378 15.8162L15.2382 12.4535L12.5076 15.3765ZM16.1067 18.7387C16.9497 19.5268 18.079 19.9528 19.2167 19.9528V15.9528C19.0555 15.9528 18.9132 15.8867 18.8384 15.8167L16.1067 18.7387ZM19.2167 19.9528H20.4729V15.9528H19.2167V19.9528ZM20.4729 19.9528C20.2676 19.9528 20.0955 19.9106 19.9677 19.8628L21.3707 16.1169C21.1212 16.0234 20.8174 15.9528 20.4729 15.9528V19.9528ZM22.0345 19.4513L24.7975 16.8701L22.0668 13.9471L19.3039 16.5284L22.0345 19.4513ZM24.7975 16.87C27.0675 14.7492 27.0675 11.2509 24.7975 9.13007L22.0668 12.0529C22.6444 12.5926 22.6444 13.4075 22.0668 13.9472L24.7975 16.87Z" fill="white" mask="url(#path-3-inside-1_96_8300)"/>
</svg>
